<svg width="360" height="93" viewBox="0 0 360 93" fill="none" xmlns="http://www.w3.org/2000/svg">
<path d="M94.704 50.168H111.472V52.728H106.48V55.288H99.312V57.08C99.312 57.4213 99.2693 57.7627 99.184 58.104C99.184 58.4453 99.184 58.7867 99.184 59.128H99.568C99.568 59.4693 99.5253 59.8107 99.44 60.152C99.44 60.408 99.44 60.7067 99.44 61.048H98.288C98.288 61.2187 98.288 61.432 98.288 61.688C98.288 61.944 98.2453 62.1573 98.16 62.328H86.384C86.2987 62.4987 86.256 62.712 86.256 62.968C86.256 63.224 86.2133 63.4373 86.128 63.608H86.256L85.872 65.528H95.088C95.0027 65.8693 94.9173 66.2107 94.832 66.552C94.7467 66.808 94.6613 67.1067 94.576 67.448H95.984C95.8987 67.8747 95.7707 68.3013 95.6 68.728C95.4293 69.1547 95.2587 69.5813 95.088 70.008H96.752L96.24 71.288H94.32C94.1493 71.7147 93.936 72.1413 93.68 72.568C93.5093 72.9947 93.296 73.4213 93.04 73.848H98.16L97.392 75.128H98.416C98.2453 75.2987 98.0747 75.512 97.904 75.768C97.8187 76.024 97.6907 76.2373 97.52 76.408H90.224C90.1387 76.4933 90.0533 76.5787 89.968 76.664C89.8827 76.7493 89.7973 76.8773 89.712 77.048H98.032C97.6907 77.56 97.3493 77.9867 97.008 78.328H94.96C94.704 78.6693 94.4053 79.0107 94.064 79.352C93.808 79.608 93.5093 79.9067 93.168 80.248H97.648L95.6 82.168H94.192L93.424 82.808H89.584C88.816 83.4053 87.92 84.0453 86.896 84.728H86.128C85.616 85.0693 85.0613 85.4107 84.464 85.752C83.952 86.008 83.3973 86.3067 82.8 86.648H80.368L78.96 87.288H75.632C74.0107 88.056 72.432 88.696 70.896 89.208H67.696C65.392 89.976 62.96 90.616 60.4 91.128H57.968C57.2853 91.2133 56.56 91.2987 55.792 91.384C55.1093 91.5547 54.4267 91.6827 53.744 91.768H57.2C55.8347 91.9387 54.384 92.0667 52.848 92.152C51.3973 92.2373 49.904 92.28 48.368 92.28C46.7467 92.28 45.168 92.2373 43.632 92.152C42.1813 92.0667 40.7307 91.9387 39.28 91.768H35.952C35.184 91.6827 34.4587 91.5547 33.776 91.384C33.0933 91.2987 32.4107 91.2133 31.728 91.128H34.16C31.6 90.616 29.168 89.976 26.864 89.208H30.064C28.528 88.696 26.992 88.056 25.456 87.288H28.912C28.656 87.1173 28.4 86.9893 28.144 86.904C27.9733 86.8187 27.8027 86.7333 27.632 86.648H30.192C29.5947 86.3067 29.04 86.008 28.528 85.752C28.016 85.4107 27.504 85.0693 26.992 84.728H27.888L25.328 82.808H29.168L28.4 82.168H29.808L27.888 80.248H23.536C23.1947 79.9067 22.896 79.608 22.64 79.352C22.384 79.0107 22.128 78.6693 21.872 78.328H23.92C23.8347 78.1573 23.7067 77.944 23.536 77.688C23.3653 77.432 23.1947 77.2187 23.024 77.048H14.704L14.32 76.408H21.616L20.848 75.128H19.952L19.184 73.848H14.064L12.912 71.288H14.832C14.7467 71.1173 14.6613 70.904 14.576 70.648C14.4907 70.392 14.4053 70.1787 14.32 70.008H12.656C12.4853 69.5813 12.3147 69.1547 12.144 68.728C12.0587 68.3013 11.9307 67.8747 11.76 67.448H10.352C10.2667 67.1067 10.1813 66.808 10.096 66.552C10.0107 66.2107 9.92533 65.8693 9.84 65.528H8.816C8.73067 65.1867 8.64533 64.888 8.56 64.632C8.47467 64.2907 8.38933 63.9493 8.304 63.608H1.136C1.05067 63.4373 1.008 63.224 1.008 62.968C1.008 62.712 0.965333 62.4987 0.88 62.328H12.656C12.656 62.1573 12.656 61.944 12.656 61.688C12.656 61.432 12.6133 61.2187 12.528 61.048H11.12C11.0347 60.7067 10.9493 60.408 10.864 60.152C10.864 59.8107 10.864 59.4693 10.864 59.128H15.984C15.984 58.7867 15.984 58.488 15.984 58.232C15.984 57.8907 15.9413 57.5493 15.856 57.208H20.72V55.288H6.256V52.728H17.008C16.9227 52.3013 16.88 51.8747 16.88 51.448C16.88 51.0213 16.88 50.5947 16.88 50.168H18.544V48.888H7.92V47.608H9.072V45.688H12.528V44.408H10.736V43.768H10.096V41.208H10.224V38.648H10.608V38.008H10.992V37.368H8.56V36.728H11.248V36.088H10.608C10.6933 35.7467 10.736 35.448 10.736 35.192C10.736 34.8507 10.736 34.5093 10.736 34.168H11.76V33.528H9.712C9.712 33.1013 9.712 32.6747 9.712 32.248C9.79733 31.8213 9.84 31.3947 9.84 30.968H10.736C10.8213 30.7973 10.864 30.584 10.864 30.328C10.864 30.072 10.9067 29.8587 10.992 29.688H11.632L12.016 27.768H7.664L8.048 25.848H11.888C12.0587 25.4213 12.1867 24.9947 12.272 24.568C12.3573 24.056 12.4853 23.6293 12.656 23.288H14.192L14.448 22.648H13.552C13.6373 22.3067 13.7227 22.008 13.808 21.752C13.9787 21.4107 14.1067 21.0693 14.192 20.728H14.064C14.2347 20.3867 14.3627 20.088 14.448 19.832C14.6187 19.4907 14.7893 19.1493 14.96 18.808H14.576L15.728 16.888H16.752L17.136 16.248H15.984L17.392 14.328H25.072C25.328 14.072 25.4987 13.8587 25.584 13.688H18.416L19.568 12.408H18.928L20.848 10.488C21.36 10.0613 21.872 9.63466 22.384 9.20799C22.896 8.69599 23.4507 8.26933 24.048 7.92799H24.176C24.8587 7.50133 25.5413 7.07466 26.224 6.64799C26.9067 6.136 27.632 5.70933 28.4 5.368C28.8267 5.11199 29.2533 4.89866 29.68 4.728C30.192 4.472 30.6613 4.25866 31.088 4.088H31.344C33.136 3.32 35.056 2.68 37.104 2.168H36.976C39.536 1.48533 42.224 0.97333 45.04 0.631996C47.9413 0.290662 50.928 0.119995 54 0.119995C57.2427 0.119995 60.272 0.290662 63.088 0.631996C65.9893 0.97333 68.7627 1.48533 71.408 2.168C73.5413 2.68 75.5467 3.32 77.424 4.088H77.168C77.68 4.25866 78.192 4.472 78.704 4.728C79.216 4.89866 79.728 5.11199 80.24 5.368C81.0933 5.70933 81.904 6.136 82.672 6.64799C83.44 7.07466 84.208 7.50133 84.976 7.92799H84.848C85.5307 8.26933 86.128 8.69599 86.64 9.20799C87.2373 9.63466 87.8347 10.0613 88.432 10.488H88.304C88.7307 10.8293 89.1147 11.1707 89.456 11.512C89.7973 11.768 90.1387 12.0667 90.48 12.408H91.12L92.272 13.688H99.44L100.08 14.328H92.272C92.6133 14.6693 92.8693 15.0107 93.04 15.352C93.296 15.608 93.552 15.9067 93.808 16.248H94.96L95.344 16.888H94.32C94.4907 17.2293 94.6613 17.5707 94.832 17.912C95.088 18.168 95.2587 18.4667 95.344 18.808H95.728C95.8987 19.1493 96.0693 19.4907 96.24 19.832C96.4107 20.088 96.5387 20.3867 96.624 20.728H96.88C97.0507 21.0693 97.1787 21.4107 97.264 21.752C97.3493 22.008 97.4347 22.3067 97.52 22.648H98.544C98.544 22.7333 98.544 22.8187 98.544 22.904C98.6293 22.9893 98.672 23.1173 98.672 23.288H97.136C97.3067 23.7147 97.392 24.1413 97.392 24.568C97.4773 24.9947 97.5627 25.4213 97.648 25.848H97.904C97.904 26.1893 97.904 26.5307 97.904 26.872C97.9893 27.128 98.032 27.4267 98.032 27.768H100.08C100.165 27.9387 100.208 28.2373 100.208 28.664C100.208 29.0053 100.123 29.3467 99.952 29.688H97.776C97.6053 30.2853 97.264 30.712 96.752 30.968H97.648C97.2213 31.3093 96.6667 31.48 95.984 31.48H67.696C66.5867 31.48 65.7333 31.3093 65.136 30.968H64.24C63.728 30.6267 63.3867 30.328 63.216 30.072L62.832 29.688H65.136C64.9653 29.432 64.752 29.1333 64.496 28.792C64.24 28.4507 63.8987 28.1093 63.472 27.768H61.424C60.5707 26.9147 59.5893 26.2747 58.48 25.848H58.224C57.1147 25.336 55.664 25.08 53.872 25.08C52.08 25.08 50.544 25.336 49.264 25.848H45.424C44.3147 26.1893 43.376 26.8293 42.608 27.768H46.96C46.5333 28.1947 46.1067 28.8347 45.68 29.688H44.912C44.8267 29.8587 44.7413 30.072 44.656 30.328C44.5707 30.4987 44.4853 30.712 44.4 30.968H43.504C43.4187 31.3093 43.3333 31.736 43.248 32.248C43.1627 32.6747 43.0773 33.1013 42.992 33.528H45.168C45.0827 33.6987 45.04 33.912 45.04 34.168H44.016V36.088H44.528V36.728H41.84V37.368H44.272V38.008H43.888V38.648H43.504V41.208H43.376V43.768H44.016V44.408H45.808V45.688H42.352V47.608H41.2V48.888H51.824V50.168H50.16C50.16 50.5947 50.16 51.0213 50.16 51.448C50.2453 51.8747 50.288 52.3013 50.288 52.728H39.536V55.288H54V57.208H49.264C49.264 57.5493 49.264 57.8907 49.264 58.232C49.3493 58.488 49.392 58.7867 49.392 59.128H44.272C44.3573 59.4693 44.4427 59.8107 44.528 60.152C44.6133 60.408 44.6987 60.7067 44.784 61.048H46.192C46.2773 61.304 46.3627 61.56 46.448 61.816C46.5333 61.9867 46.6187 62.1573 46.704 62.328H34.928C35.0133 62.7547 35.2693 63.1813 35.696 63.608H42.864C43.376 64.376 44.016 65.016 44.784 65.528H45.936C47.472 66.7227 49.648 67.32 52.464 67.32C53.9147 67.32 55.28 67.192 56.56 66.936C57.84 66.5947 58.9067 66.1253 59.76 65.528H50.672C51.3547 65.1013 52.0373 64.4613 52.72 63.608H52.592C52.9333 63.096 53.1467 62.6693 53.232 62.328H65.136L65.52 61.048H66.672C66.7573 60.7067 66.8 60.408 66.8 60.152C66.8853 59.8107 66.928 59.4693 66.928 59.128H66.544L66.672 58.232V58.104H60.656C59.8027 58.104 58.992 57.8053 58.224 57.208C57.6267 56.6107 57.2853 55.9707 57.2 55.288H64.496C64.4107 55.1173 64.368 54.904 64.368 54.648V52.728H69.36V50.168H52.592V48.888H59.376V47.608H54.64V45.688H55.92V44.408H56.816V43.768H55.792V41.208H56.176V40.44C56.176 39.672 56.3467 39.0747 56.688 38.648H56.176C56.2613 38.4773 56.432 38.264 56.688 38.008H57.456C57.7973 37.6667 58.0533 37.4533 58.224 37.368H55.92C56.3467 37.112 56.8587 36.984 57.456 36.984H92.656C93.3387 36.984 93.8507 37.112 94.192 37.368H96.624C96.88 37.4533 97.1787 37.6667 97.52 38.008H96.752C97.008 38.264 97.1787 38.4773 97.264 38.648H97.776C98.1173 39.0747 98.288 39.672 98.288 40.44V41.208H97.904V43.768H98.928V44.408H98.032V45.688H96.752V47.608H101.488V48.888H94.704V50.168ZM203.546 84.088L204.442 86.648H202.266L202.522 87.288C202.522 87.3733 202.522 87.5013 202.522 87.672C202.607 87.7573 202.65 87.8427 202.65 87.928H201.882V88.184C201.882 89.208 201.498 89.976 200.73 90.488H200.858C200.431 90.8293 199.877 91 199.194 91H175.514C174.917 91 174.405 90.9573 173.978 90.872C173.637 90.7013 173.253 90.5733 172.826 90.488C172.143 90.1467 171.631 89.7627 171.29 89.336C170.949 88.824 170.693 88.3547 170.522 87.928H171.162V87.8L170.906 87.288L170.65 86.648H172.826L171.93 84.088H169.498L169.114 82.808H174.362L173.466 80.248H171.93L171.546 79.352H144.026L143.77 80.248H142.234L141.338 82.808H139.93L139.418 84.088H138.65L137.754 86.648H137.882L137.626 87.288L137.498 87.8L137.37 87.928H136.73C136.559 88.3547 136.303 88.824 135.962 89.336C135.621 89.7627 135.109 90.1467 134.426 90.488H138.266C137.925 90.5733 137.541 90.7013 137.114 90.872C136.687 90.9573 136.175 91 135.578 91H111.898C111.215 91 110.703 90.8293 110.362 90.488H106.522C105.669 89.8907 105.242 89.1227 105.242 88.184V87.928H106.01C106.01 87.672 106.053 87.4587 106.138 87.288L106.266 86.648H106.138L107.034 84.088H107.802L108.314 82.808H109.722L110.618 80.248H112.026L112.922 77.688H107.93L108.442 76.408H108.058L108.698 74.488H109.978L110.234 73.848H107.418L108.314 71.288H112.666L113.05 70.008H109.082L109.338 69.368H109.978L110.874 66.808H110.49L111.13 64.888H111.642L112.538 62.328H114.202L114.842 60.408L115.098 59.768H121.498L121.754 59.128H121.37L122.01 57.208H114.842L115.738 54.648H118.042L118.298 54.008H116.89L117.146 53.368H121.242L122.138 50.808H117.146L117.658 49.528H119.578L120.474 46.968H119.322L119.962 45.048H121.37L122.266 42.488H121.882L122.138 41.848H119.194L119.706 40.568H122.522L123.162 38.648H121.882L122.01 38.008H124.314L125.21 35.448H122.394L123.034 33.528H121.626L122.01 32.248H113.178L113.562 30.968H111.898L112.794 28.408H111.13L111.898 26.488H116.89L117.786 23.928H130.586L131.226 22.008H125.082L125.594 20.728H130.33L131.226 18.168H127.002L127.642 16.248H130.33L131.226 13.688H130.842L131.738 11.128H128.154L128.282 10.488H140.57L141.466 7.92799H141.082L141.338 7.28799H136.858L137.37 5.62399L137.754 4.728H139.034L139.802 3.448H139.418C139.845 2.85066 140.442 2.38133 141.21 2.03999C141.978 1.61333 142.917 1.39999 144.026 1.39999H171.802C172.911 1.39999 173.85 1.61333 174.618 2.03999C175.386 2.38133 175.983 2.85066 176.41 3.448H176.922L177.69 4.728H176.41C176.581 5.06933 176.666 5.368 176.666 5.62399L177.306 7.28799H181.786L181.914 7.92799H182.298L183.194 10.488H171.034L171.29 11.128H174.874L175.77 13.688H176.154L177.05 16.248H174.362L175.002 18.168H179.226L180.122 20.728H175.386L175.898 22.008H182.042L182.682 23.928H169.882L170.778 26.488H165.786L166.426 28.408H167.962L168.858 30.968H163.866L164.378 32.248H184.73L185.114 33.528H184.09L184.73 35.448H182.17L183.066 38.008H179.994L180.122 38.648H184.73L185.37 40.568H185.498L186.01 41.848H181.786L182.042 42.488H186.138L187.034 45.048H188.442L189.082 46.968H188.698L189.594 49.528H191.642L192.154 50.808H188.442L189.338 53.368H191.898L192.026 54.008H191.386L191.642 54.648H189.338L190.106 57.208H197.402L198.042 59.128H198.426L198.682 59.768H192.154L192.41 60.408H192.538L193.178 62.328H191.514L192.41 64.888H191.77L192.538 66.808H192.922L193.818 69.368H193.178L193.434 70.008H197.402L197.914 71.288H193.434L194.33 73.848H197.146L197.402 74.488H196.122L196.89 76.408H197.146L197.658 77.688H202.65L203.546 80.248H205.082L205.978 82.808H200.73L201.114 84.088H203.546ZM150.042 33.528H151.578L150.938 35.448H156.186L155.546 33.528H156.57L156.186 32.248H150.426L150.042 33.528ZM154.266 38.008L153.626 35.832L152.986 38.008H154.266ZM146.586 53.368L146.33 54.008H147.738L147.61 54.392H162.074L161.946 54.008H162.586L162.458 53.368H159.898L159.13 50.808H162.842L162.458 49.528H160.282L159.514 46.968H159.898L159.386 45.048H157.978L157.21 42.488H153.114L152.858 41.848H157.082L156.698 40.568H156.57L155.93 38.648H151.834L151.322 40.568H148.506L148.122 41.848H150.938L150.81 42.488H151.194L150.426 45.048H149.018L148.378 46.968H149.53L148.762 49.528H146.842L146.458 50.808H151.45L150.682 53.368H146.586ZM263.051 23.288H242.187V25.848H250.507V28.408H261.515V30.328H249.099V30.968H250.635V33.528H247.435V34.168H247.179V34.808H243.979V37.368H249.995V38.008H250.251V38.648H248.843V40.568H247.947V41.208H252.171V43.768H241.931V46.328H245.643V48.248H247.691V50.808H247.947V53.368H246.923V56.568H248.075V57.848H247.307V59.768H247.179V60.408H246.155V62.968H247.307V64.248H247.179V71.928H247.307V74.488H249.483V77.048H247.691V78.328H247.179V79.608H248.715V82.168H246.539V82.808H249.739V84.088H250.891V84.728H249.867V86.648H249.355V87.544C249.355 87.7147 249.312 87.8853 249.227 88.056C249.227 88.2267 249.184 88.3973 249.099 88.568H245.899C245.814 88.9947 245.558 89.4213 245.131 89.848H248.715C248.374 90.1893 248.118 90.4027 247.947 90.488H240.651C240.224 90.8293 239.627 91 238.859 91H212.747C211.979 91 211.382 90.8293 210.955 90.488H218.251C217.91 90.4027 217.654 90.1893 217.483 89.848H213.899C213.472 89.4213 213.216 88.9947 213.131 88.568H216.459C216.374 88.312 216.331 87.9707 216.331 87.544V86.648H216.843V84.728H217.867V84.088H216.715V82.808H213.515V82.168H215.691V79.608H214.155V78.328H214.667V77.048H216.459V74.488H214.283V71.928H214.155V64.248H214.283V62.968H213.131V60.408H214.155V59.768H214.283V57.848H215.051V56.568H213.899V53.368H214.923V50.808H214.667V48.248H212.619V46.328H208.907V43.768H219.147V41.208H214.923V40.568H215.819V38.648H217.227V38.008H216.971V37.368H210.955V34.808H214.155V34.168H214.411V33.528H217.611V30.968H216.075V30.328H228.491V28.408H217.483V25.848H209.163V23.288H230.027V22.648H216.971V20.728H216.843V18.808H214.539V18.168H222.347V16.888H216.459V14.328H216.971V12.408H213.387V9.848H214.027V8.56799H213.643V7.28799H214.667V6.64799H213.515V4.856C213.515 4.42933 213.6 3.96 213.771 3.448H214.411C215.008 2.08266 216.075 1.39999 217.611 1.39999H243.723C245.259 1.39999 246.326 2.08266 246.923 3.448H246.283C246.454 3.96 246.539 4.42933 246.539 4.856V6.64799H247.691V7.28799H246.667V8.56799H247.051V9.848H246.411V12.408H249.995V14.328H249.483V16.888H255.371V18.168H247.563V18.808H249.867V20.728H249.995V22.648H263.051V23.288ZM359.072 84.088H359.712V85.368H356.384V87.928H347.936C347.936 88.2693 347.851 88.6107 347.68 88.952C347.509 89.2933 347.339 89.592 347.168 89.848H342.816C342.475 90.1893 342.219 90.4027 342.048 90.488H347.168C346.741 90.8293 346.144 91 345.376 91H325.152C324.64 91 324.171 90.9573 323.744 90.872C323.317 90.7013 322.933 90.5733 322.592 90.488H317.344C317.003 90.3173 316.661 90.104 316.32 89.848H320.672C320.245 89.5067 319.904 89.1653 319.648 88.824C319.392 88.4827 319.179 88.2267 319.008 88.056V87.928H327.328L325.664 85.368H328.992L328.096 84.088H327.456L326.176 82.168H311.456L309.664 79.608H311.584L309.92 77.048H305.44L304.928 76.408H310.816L309.536 74.488H312.224L310.944 72.568H305.696L304.032 70.008H312.096L311.712 69.368H307.488L306.72 68.088H302.752L301.088 65.528H298.912L298.528 64.888H304.416L303.136 62.968H296.48V64.888H290.08V65.528H298.784V68.088H300.064V69.368H300.192V70.008H296.48V72.568H290.464V74.488H297.504V76.408H296.224V77.048H294.688V79.608H297.504V82.168H298.656V84.088H293.408V85.368H297.888V87.928H292.256C292.256 88.2693 292.171 88.6107 292 88.952C291.829 89.2933 291.659 89.592 291.488 89.848H295.584C295.243 90.1893 294.987 90.4027 294.816 90.488H290.848C290.421 90.8293 289.824 91 289.056 91H265.888C265.035 91 264.395 90.8293 263.968 90.488H268.064C267.893 90.4027 267.637 90.1893 267.296 89.848H263.072C262.901 89.592 262.731 89.2933 262.56 88.952C262.389 88.6107 262.304 88.2693 262.304 87.928H267.808V85.368H263.328V84.088H268.576V82.168H267.424V79.608H264.608V77.048H266.144V76.408H267.424V74.488H260.384V72.568H266.4V70.008H270.112V69.368H269.984V68.088H268.704V65.528H260V64.888H266.4V62.968H272.544V62.328H265.76V61.688H268.32V59.128H266.272V56.568H266.4V55.928H265.376V55.288H265.504V53.368H260.64V52.728H263.968V51.448H256.416V48.888H269.088V47.608H261.024V45.048H265.632V44.408H266.4V42.488H268.704V41.208H269.856V39.288H266.528V38.648H265.248V37.368H263.968V34.808H266.4V32.888H269.856V31.608H277.92V30.968H267.936V30.328H264.608V28.408H263.2V26.488H265.504V23.928H268.832V22.008H272.032V20.728H265.632V20.088H266.4V17.528H269.344V16.888H263.328V15.608H267.04V13.048H262.176V11.128H265.376V9.848H253.984V7.92799H251.552V6.64799H260.128V4.856C260.128 4.51466 260.171 4.25866 260.256 4.088H268.832C268.832 3.74666 269.003 3.32 269.344 2.808H267.04C267.723 1.86933 268.661 1.39999 269.856 1.39999H290.08C291.019 1.39999 291.829 1.52799 292.512 1.784C293.195 2.04 293.749 2.38133 294.176 2.808H296.48C296.821 3.14933 297.163 3.57599 297.504 4.088H288.928C288.928 4.17333 288.928 4.216 288.928 4.216C289.013 4.216 289.056 4.25866 289.056 4.34399L290.464 6.64799H281.888L282.656 7.92799H285.088L286.24 9.848H297.632L298.4 11.128H295.328L296.48 13.048H301.216L302.88 15.608H299.168L299.936 16.888H305.952L306.336 17.528H303.392L304.928 20.088H304.16L304.544 20.728H310.944L311.712 22.008H308.512L309.792 23.928H306.464L308 26.488H305.568L306.72 28.408H308.128L309.408 30.328H312.736L313.12 30.968H315.04V30.328H318.88V28.408H315.168V26.488H316.064V23.928H318.624V22.008H321.696V20.728H315.552V17.528H323.104V16.888H322.976V15.608H314.912V13.048H317.728V11.128H321.44V9.848H313.632V7.92799H323.616V6.64799H322.848V4.856C322.848 4.51466 322.891 4.25866 322.976 4.088H318.752C318.837 3.74666 319.051 3.32 319.392 2.808H315.04C315.723 1.86933 316.661 1.39999 317.856 1.39999H341.024C342.219 1.39999 343.157 1.86933 343.84 2.808H348.192C348.363 3.14933 348.533 3.57599 348.704 4.088H352.928V6.64799H353.696V7.92799H343.712V9.848H351.52V11.128H347.808V13.048H344.992V15.608H353.056V16.888H353.184V17.528H345.632V20.728H351.776V22.008H348.704V23.928H346.144V26.488H345.248V28.408H348.96V30.328H345.12V30.968H354.08V31.608H349.344V32.888H348.064V34.808H343.84V37.368H339.488V38.648H346.144V39.288H350.496V41.208H349.344V42.488H347.04V44.408H346.272V45.048H341.664V47.608H349.728V48.888H337.056V51.448H344.608V52.728H341.28V53.368H346.144V55.288H346.016V55.928H350.112V56.568H347.296V59.128H347.552V61.688H351.136V62.328H344.992V62.968H348.704V64.888H342.816V65.528H344.864V68.088H348.832V69.368H353.056V70.008H344.864V72.568H350.112V74.488H347.424V76.408H341.664V77.048H346.144V79.608H344.224V82.168H359.072V84.088ZM324 30.968H323.104L323.488 31.608H324V30.968ZM315.424 31.608L316.192 32.888H312.736L313.888 34.808H317.984V32.888H319.264V31.608H315.424ZM313.76 34.808H311.456L312.992 37.368H313.76V34.808ZM305.184 62.328L304.8 61.688H301.216L299.552 59.128H299.168L297.504 56.568H300.32L299.808 55.928H296.48V56.568H296.352V59.128H298.4V61.688H295.84V62.328H305.184Z" fill="white"/>
</svg>
